<svg width="3000" height="3000" viewBox="0 0 3000 3000" fill="none"
    xmlns="http://www.w3.org/2000/svg">
    <g clip-path="url(#clip0_741_2)">
        <path d="M3059 1788.23L1500.72 1499.87L1500.27 1499.95L1500.26 1500L1500.35 1500.65L2343.02 3058H1717.96L1500.35 1500.65L1500.2 1500.38L1266.97 3058H661.658L1500 1500L-59 1774.21V1211.25L1499.84 1499.71L656.981 -58H1282.56L1500.21 1499.62L1500.36 1499.33L1733.55 -58H2338.34L1500.36 1499.33L1500.29 1499.79L1500.72 1499.87L3059 1225.79V1788.23Z" fill="#FBCB4F"/>
        <path d="M-59 -59L1499.5 1500L1499.99 1499.77L3058 -58.4804V769.211L1499.99 1499.77L1499.68 1500.08L3058 2231.31V3059L1499.63 1500.13L-59 3059V2230.79L1499.5 1500L-59 768.691V-59Z" fill="#FBCB4F"/>
    </g>
    <defs>
        <clipPath id="clip0_741_2">
            <rect width="3000" height="3000" fill="white"/>
        </clipPath>
    </defs>
</svg>
